<?xml version="1.0" standalone="no"?>
<!DOCTYPE svg PUBLIC "-//W3C//DTD SVG 20010904//EN"
 "http://www.w3.org/TR/2001/REC-SVG-20010904/DTD/svg10.dtd">
<svg version="1.0" xmlns="http://www.w3.org/2000/svg"
 width="100px" height="50px" viewBox="0 0 1280.000000 640.000000"
 preserveAspectRatio="xMidYMid meet">
<metadata>
Created by potrace 1.15, written by Peter Selinger 2001-2017
</metadata>
<g transform="translate(0.000000,640.000000) scale(0.100000,-0.100000)"
fill="#FF00000" stroke="none">
<path d="M10614 4770 c-239 -62 -420 -253 -505 -530 -20 -64 -23 -97 -23 -220
0 -137 1 -150 31 -237 82 -237 195 -398 598 -853 254 -287 353 -409 457 -564
160 -239 256 -491 259 -684 1 -52 3 -60 9 -37 4 17 8 53 9 80 3 107 64 299
145 450 109 206 218 346 637 816 254 285 372 440 451 595 83 162 112 272 112
429 0 241 -86 442 -256 601 -214 200 -532 228 -773 69 -54 -36 -145 -125 -191
-185 -39 -53 -99 -180 -119 -255 l-18 -67 -18 68 c-10 37 -36 104 -58 148
-147 298 -456 453 -747 376z"/>
</g>
</svg>
