<?xml version="1.0" standalone="no"?>
<!DOCTYPE svg PUBLIC "-//W3C//DTD SVG 20010904//EN"
 "http://www.w3.org/TR/2001/REC-SVG-20010904/DTD/svg10.dtd">
<svg version="1.0" xmlns="http://www.w3.org/2000/svg"
 width="100px" height="50px" viewBox="0 0 1280.000000 640.000000"
 preserveAspectRatio="xMidYMid meet">
<metadata>
Created by potrace 1.15, written by Peter Selinger 2001-2017
</metadata>
<g transform="translate(0.000000,640.000000) scale(0.100000,-0.100000)"
fill="#000000" stroke="none">
<path d="M1357 4707 c-16 -162 -88 -346 -203 -517 -112 -167 -217 -286 -629
-710 -297 -306 -426 -483 -489 -673 -85 -254 14 -570 232 -742 123 -98 266
-148 422 -149 115 0 194 19 309 75 100 49 219 160 271 252 18 32 34 56 36 54
2 -2 -8 -34 -21 -73 -87 -241 -237 -416 -439 -514 -91 -44 -212 -80 -268 -80
-20 0 -39 -3 -41 -7 -3 -5 372 -8 833 -8 461 0 837 1 835 3 -1 2 -32 7 -69 13
-80 11 -168 40 -261 86 -197 98 -342 265 -430 499 -35 92 -31 99 12 25 132
-222 411 -359 658 -322 169 25 294 90 412 214 116 122 179 269 190 438 19 305
-105 511 -627 1044 -146 148 -298 307 -338 352 -237 272 -357 507 -381 748
l-7 70 -7 -78z"/>
</g>
</svg>
